# xmcd
#
# Track frame offsets: 
#        150
#        14101
#        25340
#        36525
#        48713
#        58125
#        69526
#        78451
#        92693
#        107476
#        121238
#        134625
#        146850
#        157875
#        169460
#        181605
#        191130
#        203655
#        218138
#        227483
#        241913
#        254250
#        266438
#        279300
#
# Disc length: 3856 seconds
#
# Revision: 0
# Processed by: cddbd v1.4PL0 Copyright (c) Steve Scherf et al.
# Submitted via: ExactAudioCopy v0.90b3
#
DISCID=630f0e18
DTITLE=Dolly Parton - Mission Chapel Memories 1971-1975
DYEAR=1900
DGENRE=Country
TTITLE0=Coat Of Many Colors
TTITLE1=If I Lose My Mind
TTITLE2=The Mystery Of The Mystery
TTITLE3=She Never Met A Man (She Didn't Like)
TTITLE4=Love Is Only As Strong (As Your Weakest Moment)
TTITLE5=Will He Be Waiting
TTITLE6=Loneliness Found Me
TTITLE7=Mission Chapel Memories
TTITLE8=Comes And Goes
TTITLE9=Oh, He's Everywhere
TTITLE10=He Left Me Love
TTITLE11=Still On Your Mind
TTITLE12=My Kind Of Man
TTITLE13=Pleasant As May
TTITLE14=Jolene
TTITLE15=When Someone Wants To Leave
TTITLE16=Living On Memories Of You
TTITLE17=Lonely Comin' Down
TTITLE18=Highway Headin' South
TTITLE19=Once Upon A Memory
TTITLE20=Sacred Memories
TTITLE21=The Bargain Store
TTITLE22=On My Mind Again
TTITLE23=When I'm Gone
EXTD=
EXTT0=
EXTT1=
EXTT2=
EXTT3=
EXTT4=
EXTT5=
EXTT6=
EXTT7=
EXTT8=
EXTT9=
EXTT10=
EXTT11=
EXTT12=
EXTT13=
EXTT14=
EXTT15=
EXTT16=
EXTT17=
EXTT18=
EXTT19=
EXTT20=
EXTT21=
EXTT22=
EXTT23=
PLAYORDER=
